<?xml version="1.0" standalone="no"?>
<!DOCTYPE svg PUBLIC "-//W3C//DTD SVG 20010904//EN"
 "http://www.w3.org/TR/2001/REC-SVG-20010904/DTD/svg10.dtd">
<svg version="1.0" xmlns="http://www.w3.org/2000/svg"
 width="480.000000pt" height="480.000000pt" viewBox="0 0 480.000000 480.000000"
 preserveAspectRatio="xMidYMid meet">

<g transform="translate(0.000000,480.000000) scale(0.100000,-0.100000)"
fill="#000000" stroke="none">
<path d="M0 2400 l0 -2400 2400 0 2400 0 0 2400 0 2400 -2400 0 -2400 0 0
-2400z m1825 800 c291 -33 519 -187 640 -435 33 -68 65 -176 65 -222 l0 -23
-255 0 -255 0 -24 49 c-35 69 -67 103 -128 136 -48 27 -62 30 -143 30 -107 0
-150 -18 -214 -91 -54 -62 -76 -133 -75 -244 3 -171 83 -286 225 -320 142 -34
305 59 341 196 l12 44 263 0 c204 0 263 -3 263 -12 -1 -33 -41 -188 -59 -232
-52 -120 -171 -258 -294 -341 -172 -116 -471 -157 -702 -95 -289 77 -509 299
-571 575 -26 114 -24 294 4 404 82 316 351 540 701 581 96 11 107 11 206 0z
m1713 -132 c-28 -46 -83 -135 -121 -198 -38 -63 -78 -127 -88 -142 -11 -14
-19 -28 -19 -30 0 -2 38 -4 84 -5 157 -3 271 -47 372 -144 103 -99 147 -209
148 -364 1 -166 -47 -290 -153 -396 -72 -73 -144 -114 -261 -151 -64 -20 -96
-23 -215 -23 -159 0 -223 14 -344 71 -52 26 -93 56 -140 103 -220 221 -211
555 26 950 63 105 191 314 229 374 l24 37 255 0 254 0 -51 -82z"/>
<path d="M3200 2364 c-73 -32 -110 -92 -110 -179 0 -90 41 -154 117 -181 98
-34 205 4 250 90 21 40 22 141 1 181 -48 90 -164 130 -258 89z"/>
</g>
</svg>
