<?xml version="1.0" standalone="no"?>
<!DOCTYPE svg PUBLIC "-//W3C//DTD SVG 20010904//EN"
 "http://www.w3.org/TR/2001/REC-SVG-20010904/DTD/svg10.dtd">
<svg version="1.0" xmlns="http://www.w3.org/2000/svg"
 width="200.000000pt" height="200.000000pt" viewBox="0 0 200.000000 200.000000"
 preserveAspectRatio="xMidYMid meet">

<g transform="translate(0.000000,200.000000) scale(0.100000,-0.100000)"
fill="#000000" stroke="none">
<path d="M324 1879 c-86 -25 -181 -122 -204 -210 -7 -25 -10 -260 -8 -686 l3
-648 23 -43 c12 -24 27 -49 32 -55 5 -7 21 -26 34 -43 14 -17 53 -43 87 -58
l61 -28 656 -2 657 -1 63 34 c70 38 100 69 140 145 l27 51 0 660 0 660 -24 53
c-30 66 -113 144 -177 166 -42 14 -125 16 -693 15 -355 0 -660 -5 -677 -10z
m726 -449 c24 -49 47 -90 50 -89 3 1 41 41 85 89 l80 88 228 1 c125 1 227 -2
227 -5 0 -3 -106 -118 -235 -254 l-235 -248 -230 -1 -229 -2 -126 250 c-69
138 -125 253 -125 256 0 3 105 5 233 5 l233 0 44 -90z m297 -705 c67 -132 122
-246 123 -252 0 -10 -52 -13 -230 -13 l-230 0 -45 90 c-25 50 -48 90 -52 90
-4 0 -46 -38 -93 -85 l-86 -85 -226 2 -226 3 234 240 c128 132 234 243 234
248 0 4 107 6 238 5 l237 -3 122 -240z"/>
</g>
</svg>
