<?xml version="1.0" standalone="no"?>
<!DOCTYPE svg PUBLIC "-//W3C//DTD SVG 20010904//EN"
 "http://www.w3.org/TR/2001/REC-SVG-20010904/DTD/svg10.dtd">
<svg version="1.0" xmlns="http://www.w3.org/2000/svg"
 width="204.000000pt" height="192.000000pt" viewBox="0 0 204.000000 192.000000"
 preserveAspectRatio="xMidYMid meet">

<g transform="translate(0.000000,192.000000) scale(0.100000,-0.100000)"
fill="#000000" stroke="none">
<path d="M0 960 l0 -960 1020 0 1020 0 0 960 0 960 -1020 0 -1020 0 0 -960z
m1362 573 c15 -13 18 -32 18 -116 0 -112 -11 -137 -60 -137 -40 0 -54 24 -54
93 l-1 62 -68 5 c-71 5 -87 15 -87 57 0 43 24 53 132 53 80 0 105 -3 120 -17z
m-256 -229 c65 -31 117 -81 152 -147 23 -45 27 -64 27 -137 0 -77 -3 -90 -33
-146 l-33 -61 33 -53 c29 -47 33 -61 33 -124 0 -64 -3 -77 -34 -125 -19 -29
-52 -66 -74 -82 -123 -89 -311 -81 -427 18 -46 39 -90 120 -90 166 0 27 0 27
70 27 57 0 70 -3 70 -15 0 -30 29 -73 63 -94 138 -85 333 25 272 153 -10 20
-20 38 -24 40 -3 2 -31 -2 -61 -10 -150 -40 -315 46 -370 193 -52 140 3 307
126 379 101 59 200 65 300 18z"/>
<path d="M930 1203 c-94 -34 -140 -94 -140 -182 0 -158 181 -245 301 -144 64
54 85 143 50 218 -36 81 -140 134 -211 108z"/>
</g>
</svg>
