<?xml version="1.0" standalone="no"?>
<!DOCTYPE svg PUBLIC "-//W3C//DTD SVG 20010904//EN"
 "http://www.w3.org/TR/2001/REC-SVG-20010904/DTD/svg10.dtd">
<svg version="1.0" xmlns="http://www.w3.org/2000/svg"
 width="225.000000pt" height="225.000000pt" viewBox="0 0 225.000000 225.000000"
 preserveAspectRatio="xMidYMid meet">

<g transform="translate(0.000000,225.000000) scale(0.100000,-0.100000)"
fill="#000000" stroke="none">
<path d="M898 1483 c-23 -27 -280 -660 -276 -680 5 -27 136 -31 166 -6 12 11
73 146 147 328 70 171 138 325 151 343 l25 32 -99 0 c-82 0 -101 -3 -114 -17z"/>
<path d="M1416 1478 c-8 -13 -71 -159 -140 -326 -69 -167 -136 -319 -151 -338
l-26 -34 94 0 c76 0 99 4 115 18 25 20 297 677 287 692 -3 5 -42 10 -85 10
-71 0 -81 -2 -94 -22z"/>
<path d="M1068 1263 c-19 -24 -98 -218 -98 -243 0 -18 7 -20 78 -20 62 0 82 4
95 18 22 24 109 240 102 252 -3 6 -41 10 -84 10 -62 0 -81 -4 -93 -17z"/>
</g>
</svg>
