<?xml version="1.0" standalone="no"?>
<!DOCTYPE svg PUBLIC "-//W3C//DTD SVG 20010904//EN"
 "http://www.w3.org/TR/2001/REC-SVG-20010904/DTD/svg10.dtd">
<svg version="1.0" xmlns="http://www.w3.org/2000/svg"
 width="204.000000pt" height="192.000000pt" viewBox="0 0 204.000000 192.000000"
 preserveAspectRatio="xMidYMid meet">

<g transform="translate(0.000000,192.000000) scale(0.100000,-0.100000)"
fill="#000000" stroke="none">
<path d="M0 960 l0 -960 1020 0 1020 0 0 960 0 960 -1020 0 -1020 0 0 -960z
m797 415 c69 -21 133 -83 164 -161 23 -57 24 -71 27 -362 l3 -303 -103 3 -103
3 -5 280 c-5 257 -7 284 -26 325 -25 55 -77 102 -137 125 -59 22 -87 17 -113
-23 -38 -55 -44 -118 -44 -423 l0 -290 -102 3 -103 3 -3 249 c-3 281 4 323 61
398 39 51 95 84 166 98 29 5 67 21 86 36 67 51 147 64 232 39z m463 -290 c5
-257 7 -284 26 -325 25 -55 77 -102 137 -125 59 -22 87 -17 113 23 38 55 44
118 44 423 l0 290 103 -3 102 -3 3 -249 c3 -281 -4 -323 -61 -398 -39 -51 -95
-84 -165 -98 -28 -5 -70 -23 -92 -39 -119 -86 -292 -51 -365 72 -48 83 -55
138 -55 439 l0 279 103 -3 102 -3 5 -280z"/>
</g>
</svg>
